<svg width="384" height="180" viewBox="0 0 384 180" fill="none" xmlns="http://www.w3.org/2000/svg">
<path d="M1.116 21L0.72 20.016L3.288 17.124C3.424 16.98 3.564 16.816 3.708 16.632C3.86 16.44 4.004 16.244 4.14 16.044C4.276 15.844 4.384 15.648 4.464 15.456C4.552 15.256 4.596 15.068 4.596 14.892C4.596 14.636 4.544 14.42 4.44 14.244C4.344 14.06 4.2 13.92 4.008 13.824C3.824 13.728 3.6 13.68 3.336 13.68C3.104 13.68 2.876 13.748 2.652 13.884C2.428 14.02 2.224 14.212 2.04 14.46C1.856 14.708 1.712 14.996 1.608 15.324L0.612 14.7C0.748 14.236 0.952 13.84 1.224 13.512C1.504 13.176 1.836 12.92 2.22 12.744C2.612 12.568 3.036 12.48 3.492 12.48C3.964 12.48 4.384 12.58 4.752 12.78C5.12 12.972 5.408 13.244 5.616 13.596C5.824 13.94 5.928 14.34 5.928 14.796C5.928 14.98 5.908 15.168 5.868 15.36C5.828 15.552 5.764 15.752 5.676 15.96C5.588 16.16 5.476 16.372 5.34 16.596C5.204 16.812 5.04 17.04 4.848 17.28C4.664 17.52 4.452 17.772 4.212 18.036L2.304 20.112L2.064 19.752H6.192V21H1.116ZM10.5638 21V14.232L10.8638 14.304L8.10384 17.676L8.05584 17.532H13.2758V18.72H7.25184L6.69984 17.64L10.8158 12.6H11.8118V21H10.5638ZM17.4173 21.12C16.7773 21.12 16.2253 20.944 15.7613 20.592C15.3053 20.24 14.9533 19.744 14.7053 19.104C14.4573 18.456 14.3333 17.688 14.3333 16.8C14.3333 15.912 14.4573 15.148 14.7053 14.508C14.9533 13.86 15.3053 13.36 15.7613 13.008C16.2253 12.656 16.7773 12.48 17.4173 12.48C18.0573 12.48 18.6093 12.656 19.0733 13.008C19.5373 13.36 19.8933 13.86 20.1413 14.508C20.3893 15.148 20.5133 15.912 20.5133 16.8C20.5133 17.688 20.3893 18.456 20.1413 19.104C19.8933 19.744 19.5373 20.24 19.0733 20.592C18.6093 20.944 18.0573 21.12 17.4173 21.12ZM17.4173 19.944C18.0013 19.944 18.4533 19.672 18.7733 19.128C19.0933 18.576 19.2533 17.8 19.2533 16.8C19.2533 15.8 19.0933 15.028 18.7733 14.484C18.4533 13.932 18.0013 13.656 17.4173 13.656C16.8333 13.656 16.3813 13.932 16.0613 14.484C15.7413 15.028 15.5813 15.8 15.5813 16.8C15.5813 17.8 15.7413 18.576 16.0613 19.128C16.3813 19.672 16.8333 19.944 17.4173 19.944Z" fill="white" fill-opacity="0.33"/>
<path d="M1.116 40.2998L0.72 39.3158L3.288 36.4238C3.424 36.2798 3.564 36.1158 3.708 35.9318C3.86 35.7398 4.004 35.5438 4.14 35.3438C4.276 35.1438 4.384 34.9478 4.464 34.7558C4.552 34.5558 4.596 34.3678 4.596 34.1918C4.596 33.9358 4.544 33.7198 4.44 33.5438C4.344 33.3598 4.2 33.2198 4.008 33.1238C3.824 33.0278 3.6 32.9798 3.336 32.9798C3.104 32.9798 2.876 33.0478 2.652 33.1838C2.428 33.3198 2.224 33.5118 2.04 33.7598C1.856 34.0078 1.712 34.2958 1.608 34.6238L0.612 33.9998C0.748 33.5358 0.952 33.1398 1.224 32.8118C1.504 32.4758 1.836 32.2198 2.22 32.0438C2.612 31.8678 3.036 31.7798 3.492 31.7798C3.964 31.7798 4.384 31.8798 4.752 32.0798C5.12 32.2718 5.408 32.5438 5.616 32.8958C5.824 33.2398 5.928 33.6398 5.928 34.0958C5.928 34.2798 5.908 34.4678 5.868 34.6598C5.828 34.8518 5.764 35.0518 5.676 35.2598C5.588 35.4598 5.476 35.6718 5.34 35.8958C5.204 36.1118 5.04 36.3398 4.848 36.5798C4.664 36.8198 4.452 37.0718 4.212 37.3358L2.304 39.4118L2.064 39.0518H6.192V40.2998H1.116ZM10.2102 40.4198C9.57022 40.4198 9.01822 40.2438 8.55422 39.8918C8.09822 39.5398 7.74622 39.0438 7.49822 38.4038C7.25022 37.7558 7.12622 36.9878 7.12622 36.0998C7.12622 35.2118 7.25022 34.4478 7.49822 33.8078C7.74622 33.1598 8.09822 32.6598 8.55422 32.3078C9.01822 31.9558 9.57022 31.7798 10.2102 31.7798C10.8502 31.7798 11.4022 31.9558 11.8662 32.3078C12.3302 32.6598 12.6862 33.1598 12.9342 33.8078C13.1822 34.4478 13.3062 35.2118 13.3062 36.0998C13.3062 36.9878 13.1822 37.7558 12.9342 38.4038C12.6862 39.0438 12.3302 39.5398 11.8662 39.8918C11.4022 40.2438 10.8502 40.4198 10.2102 40.4198ZM10.2102 39.2438C10.7942 39.2438 11.2462 38.9718 11.5662 38.4278C11.8862 37.8758 12.0462 37.0998 12.0462 36.0998C12.0462 35.0998 11.8862 34.3278 11.5662 33.7838C11.2462 33.2318 10.7942 32.9558 10.2102 32.9558C9.62622 32.9558 9.17422 33.2318 8.85422 33.7838C8.53422 34.3278 8.37422 35.0998 8.37422 36.0998C8.37422 37.0998 8.53422 37.8758 8.85422 38.4278C9.17422 38.9718 9.62622 39.2438 10.2102 39.2438ZM17.4993 40.4198C16.8593 40.4198 16.3073 40.2438 15.8433 39.8918C15.3873 39.5398 15.0353 39.0438 14.7873 38.4038C14.5393 37.7558 14.4153 36.9878 14.4153 36.0998C14.4153 35.2118 14.5393 34.4478 14.7873 33.8078C15.0353 33.1598 15.3873 32.6598 15.8433 32.3078C16.3073 31.9558 16.8593 31.7798 17.4993 31.7798C18.1393 31.7798 18.6913 31.9558 19.1553 32.3078C19.6193 32.6598 19.9753 33.1598 20.2233 33.8078C20.4713 34.4478 20.5953 35.2118 20.5953 36.0998C20.5953 36.9878 20.4713 37.7558 20.2233 38.4038C19.9753 39.0438 19.6193 39.5398 19.1553 39.8918C18.6913 40.2438 18.1393 40.4198 17.4993 40.4198ZM17.4993 39.2438C18.0833 39.2438 18.5353 38.9718 18.8553 38.4278C19.1753 37.8758 19.3353 37.0998 19.3353 36.0998C19.3353 35.0998 19.1753 34.3278 18.8553 33.7838C18.5353 33.2318 18.0833 32.9558 17.4993 32.9558C16.9153 32.9558 16.4633 33.2318 16.1433 33.7838C15.8233 34.3278 15.6633 35.0998 15.6633 36.0998C15.6633 37.0998 15.8233 37.8758 16.1433 38.4278C16.4633 38.9718 16.9153 39.2438 17.4993 39.2438Z" fill="white" fill-opacity="0.33"/>
<path d="M4.604 59.0116V52.1956L5.048 52.5316L3.392 53.4076L3.044 52.2796L5.288 51.0796H5.912V59.0116H4.604ZM3.272 59.5996V58.3516H7.28V59.5996H3.272ZM11.396 59.5996C10.98 59.5996 10.592 59.5276 10.232 59.3836C9.88 59.2316 9.572 59.0236 9.308 58.7596C9.052 58.4956 8.848 58.1836 8.696 57.8236C8.552 57.4636 8.48 57.0676 8.48 56.6356C8.48 56.4196 8.508 56.1796 8.564 55.9156C8.628 55.6436 8.72 55.3476 8.84 55.0276C8.968 54.7076 9.12 54.3716 9.296 54.0196C9.472 53.6596 9.676 53.2876 9.908 52.9036L11 51.0556H12.26L12.308 51.1756L10.988 53.3956C10.748 53.8036 10.532 54.1916 10.34 54.5596C10.156 54.9276 10 55.2756 9.872 55.6036C9.744 55.9236 9.648 56.2156 9.584 56.4796L9.296 55.2436C9.448 54.9956 9.612 54.7796 9.788 54.5956C9.964 54.4036 10.152 54.2436 10.352 54.1156C10.56 53.9876 10.776 53.8916 11 53.8276C11.224 53.7636 11.456 53.7316 11.696 53.7316C12.16 53.7316 12.584 53.8596 12.968 54.1156C13.36 54.3636 13.672 54.6956 13.904 55.1116C14.144 55.5276 14.264 55.9836 14.264 56.4796C14.264 57.0796 14.14 57.6156 13.892 58.0876C13.652 58.5516 13.316 58.9196 12.884 59.1916C12.452 59.4636 11.956 59.5996 11.396 59.5996ZM11.396 58.3996C11.708 58.3996 11.984 58.3276 12.224 58.1836C12.472 58.0316 12.664 57.8236 12.8 57.5596C12.944 57.2876 13.016 56.9796 13.016 56.6356C13.016 56.3396 12.944 56.0636 12.8 55.8076C12.656 55.5436 12.464 55.3316 12.224 55.1716C11.984 55.0116 11.716 54.9316 11.42 54.9316C11.092 54.9316 10.8 55.0076 10.544 55.1596C10.288 55.3116 10.088 55.5156 9.944 55.7716C9.8 56.0276 9.728 56.3116 9.728 56.6236C9.728 56.9596 9.8 57.2636 9.944 57.5356C10.088 57.7996 10.284 58.0116 10.532 58.1716C10.78 58.3236 11.068 58.3996 11.396 58.3996ZM18.3157 59.7196C17.6757 59.7196 17.1237 59.5436 16.6597 59.1916C16.2037 58.8396 15.8517 58.3436 15.6037 57.7036C15.3557 57.0556 15.2317 56.2876 15.2317 55.3996C15.2317 54.5116 15.3557 53.7476 15.6037 53.1076C15.8517 52.4596 16.2037 51.9596 16.6597 51.6076C17.1237 51.2556 17.6757 51.0796 18.3157 51.0796C18.9557 51.0796 19.5077 51.2556 19.9717 51.6076C20.4357 51.9596 20.7917 52.4596 21.0397 53.1076C21.2877 53.7476 21.4117 54.5116 21.4117 55.3996C21.4117 56.2876 21.2877 57.0556 21.0397 57.7036C20.7917 58.3436 20.4357 58.8396 19.9717 59.1916C19.5077 59.5436 18.9557 59.7196 18.3157 59.7196ZM18.3157 58.5436C18.8997 58.5436 19.3517 58.2716 19.6717 57.7276C19.9917 57.1756 20.1517 56.3996 20.1517 55.3996C20.1517 54.3996 19.9917 53.6276 19.6717 53.0836C19.3517 52.5316 18.8997 52.2556 18.3157 52.2556C17.7317 52.2556 17.2797 52.5316 16.9597 53.0836C16.6397 53.6276 16.4797 54.3996 16.4797 55.3996C16.4797 56.3996 16.6397 57.1756 16.9597 57.7276C17.2797 58.2716 17.7317 58.5436 18.3157 58.5436Z" fill="white" fill-opacity="0.33"/>
<path d="M4.604 78.3114V71.4954L5.048 71.8314L3.392 72.7074L3.044 71.5794L5.288 70.3794H5.912V78.3114H4.604ZM3.272 78.8994V77.6514H7.28V78.8994H3.272ZM9.116 78.8994L8.72 77.9154L11.288 75.0234C11.424 74.8794 11.564 74.7154 11.708 74.5314C11.86 74.3394 12.004 74.1434 12.14 73.9434C12.276 73.7434 12.384 73.5474 12.464 73.3554C12.552 73.1554 12.596 72.9674 12.596 72.7914C12.596 72.5354 12.544 72.3194 12.44 72.1434C12.344 71.9594 12.2 71.8194 12.008 71.7234C11.824 71.6274 11.6 71.5794 11.336 71.5794C11.104 71.5794 10.876 71.6474 10.652 71.7834C10.428 71.9194 10.224 72.1114 10.04 72.3594C9.856 72.6074 9.712 72.8954 9.608 73.2234L8.612 72.5994C8.748 72.1354 8.952 71.7394 9.224 71.4114C9.504 71.0754 9.836 70.8194 10.22 70.6434C10.612 70.4674 11.036 70.3794 11.492 70.3794C11.964 70.3794 12.384 70.4794 12.752 70.6794C13.12 70.8714 13.408 71.1434 13.616 71.4954C13.824 71.8394 13.928 72.2394 13.928 72.6954C13.928 72.8794 13.908 73.0674 13.868 73.2594C13.828 73.4514 13.764 73.6514 13.676 73.8594C13.588 74.0594 13.476 74.2714 13.34 74.4954C13.204 74.7114 13.04 74.9394 12.848 75.1794C12.664 75.4194 12.452 75.6714 12.212 75.9354L10.304 78.0114L10.064 77.6514H14.192V78.8994H9.116ZM18.2102 79.0194C17.5702 79.0194 17.0182 78.8434 16.5542 78.4914C16.0982 78.1394 15.7462 77.6434 15.4982 77.0034C15.2502 76.3554 15.1262 75.5874 15.1262 74.6994C15.1262 73.8114 15.2502 73.0474 15.4982 72.4074C15.7462 71.7594 16.0982 71.2594 16.5542 70.9074C17.0182 70.5554 17.5702 70.3794 18.2102 70.3794C18.8502 70.3794 19.4022 70.5554 19.8662 70.9074C20.3302 71.2594 20.6862 71.7594 20.9342 72.4074C21.1822 73.0474 21.3062 73.8114 21.3062 74.6994C21.3062 75.5874 21.1822 76.3554 20.9342 77.0034C20.6862 77.6434 20.3302 78.1394 19.8662 78.4914C19.4022 78.8434 18.8502 79.0194 18.2102 79.0194ZM18.2102 77.8434C18.7942 77.8434 19.2462 77.5714 19.5662 77.0274C19.8862 76.4754 20.0462 75.6994 20.0462 74.6994C20.0462 73.6994 19.8862 72.9274 19.5662 72.3834C19.2462 71.8314 18.7942 71.5554 18.2102 71.5554C17.6262 71.5554 17.1742 71.8314 16.8542 72.3834C16.5342 72.9274 16.3742 73.6994 16.3742 74.6994C16.3742 75.6994 16.5342 76.4754 16.8542 77.0274C17.1742 77.5714 17.6262 77.8434 18.2102 77.8434Z" fill="white" fill-opacity="0.33"/>
<path d="M10.468 98.2352C9.948 98.2352 9.472 98.1272 9.04 97.9112C8.616 97.6872 8.276 97.3912 8.02 97.0232C7.764 96.6552 7.636 96.2472 7.636 95.7992C7.636 95.5512 7.668 95.3192 7.732 95.1032C7.804 94.8792 7.908 94.6752 8.044 94.4912C8.188 94.3072 8.36 94.1392 8.56 93.9872C8.76 93.8352 8.992 93.6992 9.256 93.5792L9.184 93.8312C8.976 93.7512 8.788 93.6552 8.62 93.5432C8.46 93.4232 8.32 93.2872 8.2 93.1352C8.08 92.9832 7.988 92.8192 7.924 92.6432C7.868 92.4672 7.84 92.2832 7.84 92.0912C7.84 91.6672 7.956 91.2832 8.188 90.9392C8.428 90.5952 8.744 90.3192 9.136 90.1112C9.536 89.9032 9.98 89.7992 10.468 89.7992C10.956 89.7992 11.396 89.9032 11.788 90.1112C12.188 90.3192 12.504 90.5952 12.736 90.9392C12.976 91.2832 13.096 91.6672 13.096 92.0912C13.096 92.2832 13.064 92.4672 13 92.6432C12.944 92.8192 12.86 92.9792 12.748 93.1232C12.636 93.2672 12.492 93.3992 12.316 93.5192C12.148 93.6392 11.956 93.7432 11.74 93.8312L11.704 93.6272C11.944 93.7232 12.16 93.8472 12.352 93.9992C12.552 94.1512 12.724 94.3232 12.868 94.5152C13.012 94.7072 13.12 94.9112 13.192 95.1272C13.272 95.3432 13.312 95.5672 13.312 95.7992C13.312 96.2552 13.184 96.6672 12.928 97.0352C12.672 97.4032 12.328 97.6952 11.896 97.9112C11.472 98.1272 10.996 98.2352 10.468 98.2352ZM10.468 97.0352C10.764 97.0352 11.028 96.9792 11.26 96.8672C11.5 96.7552 11.688 96.6032 11.824 96.4112C11.96 96.2192 12.028 95.9992 12.028 95.7512C12.028 95.4872 11.96 95.2552 11.824 95.0552C11.688 94.8472 11.5 94.6832 11.26 94.5632C11.028 94.4432 10.764 94.3832 10.468 94.3832C10.172 94.3832 9.908 94.4432 9.676 94.5632C9.444 94.6832 9.26 94.8472 9.124 95.0552C8.988 95.2552 8.92 95.4872 8.92 95.7512C8.92 95.9912 8.988 96.2072 9.124 96.3992C9.26 96.5912 9.444 96.7472 9.676 96.8672C9.908 96.9792 10.172 97.0352 10.468 97.0352ZM10.468 93.2312C10.724 93.2312 10.952 93.1832 11.152 93.0872C11.36 92.9912 11.52 92.8632 11.632 92.7032C11.752 92.5352 11.812 92.3432 11.812 92.1272C11.812 91.9112 11.752 91.7192 11.632 91.5512C11.52 91.3832 11.36 91.2512 11.152 91.1552C10.952 91.0512 10.724 90.9992 10.468 90.9992C10.212 90.9992 9.98 91.0512 9.772 91.1552C9.572 91.2512 9.412 91.3832 9.292 91.5512C9.18 91.7192 9.124 91.9112 9.124 92.1272C9.124 92.3432 9.18 92.5352 9.292 92.7032C9.412 92.8632 9.572 92.9912 9.772 93.0872C9.98 93.1832 10.212 93.2312 10.468 93.2312ZM17.5852 98.3192C16.9452 98.3192 16.3932 98.1432 15.9292 97.7912C15.4732 97.4392 15.1212 96.9432 14.8732 96.3032C14.6252 95.6552 14.5012 94.8872 14.5012 93.9992C14.5012 93.1112 14.6252 92.3472 14.8732 91.7072C15.1212 91.0592 15.4732 90.5592 15.9292 90.2072C16.3932 89.8552 16.9452 89.6792 17.5852 89.6792C18.2252 89.6792 18.7772 89.8552 19.2412 90.2072C19.7052 90.5592 20.0612 91.0592 20.3092 91.7072C20.5572 92.3472 20.6812 93.1112 20.6812 93.9992C20.6812 94.8872 20.5572 95.6552 20.3092 96.3032C20.0612 96.9432 19.7052 97.4392 19.2412 97.7912C18.7772 98.1432 18.2252 98.3192 17.5852 98.3192ZM17.5852 97.1432C18.1692 97.1432 18.6212 96.8712 18.9412 96.3272C19.2612 95.7752 19.4212 94.9992 19.4212 93.9992C19.4212 92.9992 19.2612 92.2272 18.9412 91.6832C18.6212 91.1312 18.1692 90.8552 17.5852 90.8552C17.0012 90.8552 16.5492 91.1312 16.2292 91.6832C15.9092 92.2272 15.7492 92.9992 15.7492 93.9992C15.7492 94.9992 15.9092 95.7752 16.2292 96.3272C16.5492 96.8712 17.0012 97.1432 17.5852 97.1432Z" fill="white" fill-opacity="0.33"/>
<path d="M11.224 117.499V110.731L11.524 110.803L8.764 114.175L8.716 114.031H13.936V115.219H7.912L7.36 114.139L11.476 109.099H12.472V117.499H11.224ZM18.0774 117.619C17.4374 117.619 16.8854 117.443 16.4214 117.091C15.9654 116.739 15.6134 116.243 15.3654 115.603C15.1174 114.955 14.9934 114.187 14.9934 113.299C14.9934 112.411 15.1174 111.647 15.3654 111.007C15.6134 110.359 15.9654 109.859 16.4214 109.507C16.8854 109.155 17.4374 108.979 18.0774 108.979C18.7174 108.979 19.2694 109.155 19.7334 109.507C20.1974 109.859 20.5534 110.359 20.8014 111.007C21.0494 111.647 21.1734 112.411 21.1734 113.299C21.1734 114.187 21.0494 114.955 20.8014 115.603C20.5534 116.243 20.1974 116.739 19.7334 117.091C19.2694 117.443 18.7174 117.619 18.0774 117.619ZM18.0774 116.443C18.6614 116.443 19.1134 116.171 19.4334 115.627C19.7534 115.075 19.9134 114.299 19.9134 113.299C19.9134 112.299 19.7534 111.527 19.4334 110.983C19.1134 110.431 18.6614 110.155 18.0774 110.155C17.4934 110.155 17.0414 110.431 16.7214 110.983C16.4014 111.527 16.2414 112.299 16.2414 113.299C16.2414 114.299 16.4014 115.075 16.7214 115.627C17.0414 116.171 17.4934 116.443 18.0774 116.443Z" fill="white" fill-opacity="0.33"/>
<path d="M17.636 136.919C16.996 136.919 16.444 136.743 15.98 136.391C15.524 136.039 15.172 135.543 14.924 134.903C14.676 134.255 14.552 133.487 14.552 132.599C14.552 131.711 14.676 130.947 14.924 130.307C15.172 129.659 15.524 129.159 15.98 128.807C16.444 128.455 16.996 128.279 17.636 128.279C18.276 128.279 18.828 128.455 19.292 128.807C19.756 129.159 20.112 129.659 20.36 130.307C20.608 130.947 20.732 131.711 20.732 132.599C20.732 133.487 20.608 134.255 20.36 134.903C20.112 135.543 19.756 136.039 19.292 136.391C18.828 136.743 18.276 136.919 17.636 136.919ZM17.636 135.743C18.22 135.743 18.672 135.471 18.992 134.927C19.312 134.375 19.472 133.599 19.472 132.599C19.472 131.599 19.312 130.827 18.992 130.283C18.672 129.731 18.22 129.455 17.636 129.455C17.052 129.455 16.6 129.731 16.28 130.283C15.96 130.827 15.8 131.599 15.8 132.599C15.8 133.599 15.96 134.375 16.28 134.927C16.6 135.471 17.052 135.743 17.636 135.743Z" fill="white" fill-opacity="0.33"/>
<g clip-path="url(#clip0_428_3752)">
<path d="M26 0H384V147.799H26V0Z" fill="#1FAEFF" fill-opacity="0.08"/>
<path d="M26 147.765L384 147.799V66.1585L338.61 78.9761L300.111 68.2818L262.325 103.573L224.539 53.3101L185.683 82.1848L147.897 76.481L109.754 92.1659L71.6112 57.2314L26.001 74.324L26 147.765Z" fill="url(#paint0_linear_428_3752)"/>
<path d="M41.234 74.328C41.234 76.3481 40.4315 78.2855 39.0031 79.714C37.5746 81.1425 35.6372 81.945 33.617 81.945C31.5969 81.945 29.6594 81.1425 28.231 79.714C26.8025 78.2855 26 76.3481 26 74.328C26 72.3078 26.8025 70.3704 28.231 68.9419C29.6594 67.5134 31.5969 66.7109 33.617 66.7109C35.6372 66.7109 37.5746 67.5134 39.0031 68.9419C40.4315 70.3704 41.234 72.3078 41.234 74.328Z" fill="#1FAEFF"/>
<path d="M79.319 57.5181C79.319 59.5383 78.5165 61.4757 77.088 62.9042C75.6596 64.3327 73.7221 65.1352 71.702 65.1352C69.6818 65.1352 67.7444 64.3327 66.3159 62.9042C64.8875 61.4757 64.085 59.5383 64.085 57.5181C64.085 55.498 64.8875 53.5606 66.3159 52.1321C67.7444 50.7036 69.6818 49.9011 71.702 49.9011C73.7221 49.9011 75.6596 50.7036 77.088 52.1321C78.5165 53.5606 79.319 55.498 79.319 57.5181Z" fill="#1FAEFF"/>
<path d="M117.404 91.6185C117.404 93.6386 116.602 95.5761 115.173 97.0045C113.745 98.433 111.808 99.2355 109.787 99.2355C107.767 99.2355 105.83 98.433 104.401 97.0045C102.973 95.5761 102.17 93.6386 102.17 91.6185C102.17 89.5983 102.973 87.6609 104.401 86.2324C105.83 84.804 107.767 84.0015 109.787 84.0015C111.808 84.0015 113.745 84.804 115.173 86.2324C116.602 87.6609 117.404 89.5983 117.404 91.6185Z" fill="#1FAEFF"/>
<path d="M155.489 76.2511C155.489 78.2712 154.687 80.2086 153.258 81.6371C151.83 83.0656 149.893 83.8681 147.872 83.8681C145.852 83.8681 143.915 83.0656 142.486 81.6371C141.058 80.2086 140.255 78.2712 140.255 76.2511C140.255 74.2309 141.058 72.2935 142.486 70.865C143.915 69.4365 145.852 68.634 147.872 68.634C149.893 68.634 151.83 69.4365 153.258 70.865C154.687 72.2935 155.489 74.2309 155.489 76.2511Z" fill="#1FAEFF"/>
<path d="M193.574 82.0116C193.574 84.0317 192.772 85.9691 191.343 87.3976C189.915 88.8261 187.978 89.6286 185.957 89.6286C183.937 89.6286 182 88.8261 180.571 87.3976C179.143 85.9691 178.34 84.0317 178.34 82.0116C178.34 79.9914 179.143 78.054 180.571 76.6255C182 75.197 183.937 74.3945 185.957 74.3945C187.978 74.3945 189.915 75.197 191.343 76.6255C192.772 78.054 193.574 79.9914 193.574 82.0116Z" fill="#1FAEFF"/>
<path d="M231.66 53.1954C231.66 55.2156 230.857 57.153 229.429 58.5814C228 60.0099 226.063 60.8124 224.043 60.8124C222.023 60.8124 220.085 60.0099 218.657 58.5814C217.228 57.153 216.426 55.2156 216.426 53.1954C216.426 51.1752 217.228 49.2378 218.657 47.8093C220.085 46.3809 222.023 45.5784 224.043 45.5784C226.063 45.5784 228 46.3809 229.429 47.8093C230.857 49.2378 231.66 51.1752 231.66 53.1954Z" fill="#1FAEFF"/>
<path d="M269.745 103.63C269.745 105.65 268.942 107.587 267.514 109.016C266.085 110.444 264.148 111.247 262.128 111.247C260.108 111.247 258.17 110.444 256.742 109.016C255.313 107.587 254.511 105.65 254.511 103.63C254.511 101.61 255.313 99.6721 256.742 98.2437C258.17 96.8152 260.108 96.0127 262.128 96.0127C264.148 96.0127 266.085 96.8152 267.514 98.2437C268.942 99.6721 269.745 101.61 269.745 103.63Z" fill="#1FAEFF"/>
<path d="M307.83 69.0435C307.83 71.0637 307.027 73.0011 305.599 74.4296C304.17 75.8581 302.233 76.6606 300.213 76.6606C298.193 76.6606 296.255 75.8581 294.827 74.4296C293.398 73.0011 292.596 71.0637 292.596 69.0435C292.596 67.0234 293.398 65.086 294.827 63.6575C296.255 62.229 298.193 61.4265 300.213 61.4265C302.233 61.4265 304.17 62.229 305.599 63.6575C307.027 65.086 307.83 67.0234 307.83 69.0435Z" fill="#1FAEFF"/>
<path d="M345.915 79.1314C345.915 81.1516 345.112 83.089 343.684 84.5175C342.255 85.9459 340.318 86.7484 338.298 86.7484C336.278 86.7484 334.34 85.9459 332.912 84.5175C331.483 83.089 330.681 81.1516 330.681 79.1314C330.681 77.1113 331.483 75.1738 332.912 73.7454C334.34 72.3169 336.278 71.5144 338.298 71.5144C340.318 71.5144 342.255 72.3169 343.684 73.7454C345.112 75.1738 345.915 77.1113 345.915 79.1314Z" fill="#1FAEFF"/>
<path d="M384 66.1634C384 68.1836 383.198 70.121 381.769 71.5495C380.341 72.9779 378.403 73.7804 376.383 73.7804C374.363 73.7804 372.426 72.9779 370.997 71.5495C369.569 70.121 368.766 68.1836 368.766 66.1634C368.766 64.1432 369.569 62.2058 370.997 60.7774C372.426 59.3489 374.363 58.5464 376.383 58.5464C378.403 58.5464 380.341 59.3489 381.769 60.7774C383.198 62.2058 384 64.1432 384 66.1634Z" fill="#1FAEFF"/>
<path d="M224.923 50.658L185.184 80.1887L147.66 74.5254L110.149 89.9499L71.9661 54.9797L32.6761 72.9725L30.9448 73.7656L32.5302 77.2282L34.2615 76.4351L71.2569 59.4939L109.36 94.3927L148.134 78.4484L186.183 84.1916L224.155 55.9739L262.077 106.418L300.631 70.4086L338.659 80.972L376.995 68.3135L378.803 67.7165L377.608 64.1005L375.801 64.6974L338.563 76.9922L299.592 66.1675L262.575 100.741L224.923 50.658Z" fill="#1FAEFF"/>
<path d="M26 17.2007V19.1049H384V17.2007H26ZM26 36.2432V38.1475H384V36.2432H26ZM26 55.2858V57.19H384V55.2858H26ZM26 74.3283V76.2326H384V74.3283H26ZM26 93.3709V95.2752H384V93.3709H26ZM26 112.413V114.318H384V112.413H26ZM26 131.456V133.36H384V131.456H26Z" fill="white" fill-opacity="0.04"/>
</g>
<rect x="27" y="1" width="356" height="145.799" rx="15" stroke="#1FAEFF" stroke-width="2"/>
<g clip-path="url(#clip1_428_3752)">
<path d="M34.604 162.211V155.395L35.048 155.731L33.392 156.607L33.044 155.479L35.288 154.279H35.912V162.211H34.604ZM33.272 162.799V161.551H37.28V162.799H33.272ZM41.636 162.919C40.996 162.919 40.444 162.743 39.98 162.391C39.524 162.039 39.172 161.543 38.924 160.903C38.676 160.255 38.552 159.487 38.552 158.599C38.552 157.711 38.676 156.947 38.924 156.307C39.172 155.659 39.524 155.159 39.98 154.807C40.444 154.455 40.996 154.279 41.636 154.279C42.276 154.279 42.828 154.455 43.292 154.807C43.756 155.159 44.112 155.659 44.36 156.307C44.608 156.947 44.732 157.711 44.732 158.599C44.732 159.487 44.608 160.255 44.36 160.903C44.112 161.543 43.756 162.039 43.292 162.391C42.828 162.743 42.276 162.919 41.636 162.919ZM41.636 161.743C42.22 161.743 42.672 161.471 42.992 160.927C43.312 160.375 43.472 159.599 43.472 158.599C43.472 157.599 43.312 156.827 42.992 156.283C42.672 155.731 42.22 155.455 41.636 155.455C41.052 155.455 40.6 155.731 40.28 156.283C39.96 156.827 39.8 157.599 39.8 158.599C39.8 159.599 39.96 160.375 40.28 160.927C40.6 161.471 41.052 161.743 41.636 161.743Z" fill="white" fill-opacity="0.33"/>
<path d="M72.4927 162.211V155.395L72.9367 155.731L71.2807 156.607L70.9327 155.479L73.1767 154.279H73.8007V162.211H72.4927ZM71.1607 162.799V161.551H75.1687V162.799H71.1607ZM77.0047 162.799L76.6087 161.815L79.1767 158.923C79.3127 158.779 79.4527 158.615 79.5967 158.431C79.7487 158.239 79.8927 158.043 80.0287 157.843C80.1647 157.643 80.2727 157.447 80.3527 157.255C80.4407 157.055 80.4847 156.867 80.4847 156.691C80.4847 156.435 80.4327 156.219 80.3287 156.043C80.2327 155.859 80.0887 155.719 79.8967 155.623C79.7127 155.527 79.4887 155.479 79.2247 155.479C78.9927 155.479 78.7647 155.547 78.5407 155.683C78.3167 155.819 78.1127 156.011 77.9287 156.259C77.7447 156.507 77.6007 156.795 77.4967 157.123L76.5007 156.499C76.6367 156.035 76.8407 155.639 77.1127 155.311C77.3927 154.975 77.7247 154.719 78.1087 154.543C78.5007 154.367 78.9247 154.279 79.3807 154.279C79.8527 154.279 80.2727 154.379 80.6407 154.579C81.0087 154.771 81.2967 155.043 81.5047 155.395C81.7127 155.739 81.8167 156.139 81.8167 156.595C81.8167 156.779 81.7967 156.967 81.7567 157.159C81.7167 157.351 81.6527 157.551 81.5647 157.759C81.4767 157.959 81.3647 158.171 81.2287 158.395C81.0927 158.611 80.9287 158.839 80.7367 159.079C80.5527 159.319 80.3407 159.571 80.1007 159.835L78.1927 161.911L77.9527 161.551H82.0807V162.799H77.0047Z" fill="white" fill-opacity="0.33"/>
<path d="M109.382 162.211V155.395L109.826 155.731L108.17 156.607L107.822 155.479L110.066 154.279H110.69V162.211H109.382ZM108.05 162.799V161.551H112.058V162.799H108.05ZM117.002 162.799V156.031L117.302 156.103L114.542 159.475L114.494 159.331H119.714V160.519H113.69L113.138 159.439L117.254 154.399H118.25V162.799H117.002Z" fill="white" fill-opacity="0.33"/>
<path d="M147.271 162.211V155.395L147.715 155.731L146.059 156.607L145.711 155.479L147.955 154.279H148.579V162.211H147.271ZM145.939 162.799V161.551H149.947V162.799H145.939ZM154.063 162.799C153.647 162.799 153.259 162.727 152.899 162.583C152.547 162.431 152.239 162.223 151.975 161.959C151.719 161.695 151.515 161.383 151.363 161.023C151.219 160.663 151.147 160.267 151.147 159.835C151.147 159.619 151.175 159.379 151.231 159.115C151.295 158.843 151.387 158.547 151.507 158.227C151.635 157.907 151.787 157.571 151.963 157.219C152.139 156.859 152.343 156.487 152.575 156.103L153.667 154.255H154.927L154.975 154.375L153.655 156.595C153.415 157.003 153.199 157.391 153.007 157.759C152.823 158.127 152.667 158.475 152.539 158.803C152.411 159.123 152.315 159.415 152.251 159.679L151.963 158.443C152.115 158.195 152.279 157.979 152.455 157.795C152.631 157.603 152.819 157.443 153.019 157.315C153.227 157.187 153.443 157.091 153.667 157.027C153.891 156.963 154.123 156.931 154.363 156.931C154.827 156.931 155.251 157.059 155.635 157.315C156.027 157.563 156.339 157.895 156.571 158.311C156.811 158.727 156.931 159.183 156.931 159.679C156.931 160.279 156.807 160.815 156.559 161.287C156.319 161.751 155.983 162.119 155.551 162.391C155.119 162.663 154.623 162.799 154.063 162.799ZM154.063 161.599C154.375 161.599 154.651 161.527 154.891 161.383C155.139 161.231 155.331 161.023 155.467 160.759C155.611 160.487 155.683 160.179 155.683 159.835C155.683 159.539 155.611 159.263 155.467 159.007C155.323 158.743 155.131 158.531 154.891 158.371C154.651 158.211 154.383 158.131 154.087 158.131C153.759 158.131 153.467 158.207 153.211 158.359C152.955 158.511 152.755 158.715 152.611 158.971C152.467 159.227 152.395 159.511 152.395 159.823C152.395 160.159 152.467 160.463 152.611 160.735C152.755 160.999 152.951 161.211 153.199 161.371C153.447 161.523 153.735 161.599 154.063 161.599Z" fill="white" fill-opacity="0.33"/>
<path d="M184.16 162.211V155.395L184.604 155.731L182.948 156.607L182.6 155.479L184.844 154.279H185.468V162.211H184.16ZM182.828 162.799V161.551H186.836V162.799H182.828ZM191.024 162.835C190.504 162.835 190.028 162.727 189.596 162.511C189.172 162.287 188.832 161.991 188.576 161.623C188.32 161.255 188.192 160.847 188.192 160.399C188.192 160.151 188.224 159.919 188.288 159.703C188.36 159.479 188.464 159.275 188.6 159.091C188.744 158.907 188.916 158.739 189.116 158.587C189.316 158.435 189.548 158.299 189.812 158.179L189.74 158.431C189.532 158.351 189.344 158.255 189.176 158.143C189.016 158.023 188.876 157.887 188.756 157.735C188.636 157.583 188.544 157.419 188.48 157.243C188.424 157.067 188.396 156.883 188.396 156.691C188.396 156.267 188.512 155.883 188.744 155.539C188.984 155.195 189.3 154.919 189.692 154.711C190.092 154.503 190.536 154.399 191.024 154.399C191.512 154.399 191.952 154.503 192.344 154.711C192.744 154.919 193.06 155.195 193.292 155.539C193.532 155.883 193.652 156.267 193.652 156.691C193.652 156.883 193.62 157.067 193.556 157.243C193.5 157.419 193.416 157.579 193.304 157.723C193.192 157.867 193.048 157.999 192.872 158.119C192.704 158.239 192.512 158.343 192.296 158.431L192.26 158.227C192.5 158.323 192.716 158.447 192.908 158.599C193.108 158.751 193.28 158.923 193.424 159.115C193.568 159.307 193.676 159.511 193.748 159.727C193.828 159.943 193.868 160.167 193.868 160.399C193.868 160.855 193.74 161.267 193.484 161.635C193.228 162.003 192.884 162.295 192.452 162.511C192.028 162.727 191.552 162.835 191.024 162.835ZM191.024 161.635C191.32 161.635 191.584 161.579 191.816 161.467C192.056 161.355 192.244 161.203 192.38 161.011C192.516 160.819 192.584 160.599 192.584 160.351C192.584 160.087 192.516 159.855 192.38 159.655C192.244 159.447 192.056 159.283 191.816 159.163C191.584 159.043 191.32 158.983 191.024 158.983C190.728 158.983 190.464 159.043 190.232 159.163C190 159.283 189.816 159.447 189.68 159.655C189.544 159.855 189.476 160.087 189.476 160.351C189.476 160.591 189.544 160.807 189.68 160.999C189.816 161.191 190 161.347 190.232 161.467C190.464 161.579 190.728 161.635 191.024 161.635ZM191.024 157.831C191.28 157.831 191.508 157.783 191.708 157.687C191.916 157.591 192.076 157.463 192.188 157.303C192.308 157.135 192.368 156.943 192.368 156.727C192.368 156.511 192.308 156.319 192.188 156.151C192.076 155.983 191.916 155.851 191.708 155.755C191.508 155.651 191.28 155.599 191.024 155.599C190.768 155.599 190.536 155.651 190.328 155.755C190.128 155.851 189.968 155.983 189.848 156.151C189.736 156.319 189.68 156.511 189.68 156.727C189.68 156.943 189.736 157.135 189.848 157.303C189.968 157.463 190.128 157.591 190.328 157.687C190.536 157.783 190.768 157.831 191.024 157.831Z" fill="white" fill-opacity="0.33"/>
<path d="M219.56 162.799L219.164 161.815L221.732 158.923C221.868 158.779 222.008 158.615 222.152 158.431C222.304 158.239 222.448 158.043 222.584 157.843C222.72 157.643 222.828 157.447 222.908 157.255C222.996 157.055 223.04 156.867 223.04 156.691C223.04 156.435 222.988 156.219 222.884 156.043C222.788 155.859 222.644 155.719 222.452 155.623C222.268 155.527 222.044 155.479 221.78 155.479C221.548 155.479 221.32 155.547 221.096 155.683C220.872 155.819 220.668 156.011 220.484 156.259C220.3 156.507 220.156 156.795 220.052 157.123L219.056 156.499C219.192 156.035 219.396 155.639 219.668 155.311C219.948 154.975 220.28 154.719 220.664 154.543C221.056 154.367 221.48 154.279 221.936 154.279C222.408 154.279 222.828 154.379 223.196 154.579C223.564 154.771 223.852 155.043 224.06 155.395C224.268 155.739 224.372 156.139 224.372 156.595C224.372 156.779 224.352 156.967 224.312 157.159C224.272 157.351 224.208 157.551 224.12 157.759C224.032 157.959 223.92 158.171 223.784 158.395C223.648 158.611 223.484 158.839 223.292 159.079C223.108 159.319 222.896 159.571 222.656 159.835L220.748 161.911L220.508 161.551H224.636V162.799H219.56ZM228.655 162.919C228.015 162.919 227.463 162.743 226.999 162.391C226.543 162.039 226.191 161.543 225.943 160.903C225.695 160.255 225.571 159.487 225.571 158.599C225.571 157.711 225.695 156.947 225.943 156.307C226.191 155.659 226.543 155.159 226.999 154.807C227.463 154.455 228.015 154.279 228.655 154.279C229.295 154.279 229.847 154.455 230.311 154.807C230.775 155.159 231.131 155.659 231.379 156.307C231.627 156.947 231.751 157.711 231.751 158.599C231.751 159.487 231.627 160.255 231.379 160.903C231.131 161.543 230.775 162.039 230.311 162.391C229.847 162.743 229.295 162.919 228.655 162.919ZM228.655 161.743C229.239 161.743 229.691 161.471 230.011 160.927C230.331 160.375 230.491 159.599 230.491 158.599C230.491 157.599 230.331 156.827 230.011 156.283C229.691 155.731 229.239 155.455 228.655 155.455C228.071 155.455 227.619 155.731 227.299 156.283C226.979 156.827 226.819 157.599 226.819 158.599C226.819 159.599 226.979 160.375 227.299 160.927C227.619 161.471 228.071 161.743 228.655 161.743Z" fill="white" fill-opacity="0.33"/>
<path d="M257.449 162.799L257.053 161.815L259.621 158.923C259.757 158.779 259.897 158.615 260.041 158.431C260.193 158.239 260.337 158.043 260.473 157.843C260.609 157.643 260.717 157.447 260.797 157.255C260.885 157.055 260.929 156.867 260.929 156.691C260.929 156.435 260.877 156.219 260.773 156.043C260.677 155.859 260.533 155.719 260.341 155.623C260.157 155.527 259.933 155.479 259.669 155.479C259.437 155.479 259.209 155.547 258.985 155.683C258.761 155.819 258.557 156.011 258.373 156.259C258.189 156.507 258.045 156.795 257.941 157.123L256.945 156.499C257.081 156.035 257.285 155.639 257.557 155.311C257.837 154.975 258.169 154.719 258.553 154.543C258.945 154.367 259.369 154.279 259.825 154.279C260.297 154.279 260.717 154.379 261.085 154.579C261.453 154.771 261.741 155.043 261.949 155.395C262.157 155.739 262.261 156.139 262.261 156.595C262.261 156.779 262.241 156.967 262.201 157.159C262.161 157.351 262.097 157.551 262.009 157.759C261.921 157.959 261.809 158.171 261.673 158.395C261.537 158.611 261.373 158.839 261.181 159.079C260.997 159.319 260.785 159.571 260.545 159.835L258.637 161.911L258.397 161.551H262.525V162.799H257.449ZM264.024 162.799L263.628 161.815L266.196 158.923C266.332 158.779 266.472 158.615 266.616 158.431C266.768 158.239 266.912 158.043 267.048 157.843C267.184 157.643 267.292 157.447 267.372 157.255C267.46 157.055 267.504 156.867 267.504 156.691C267.504 156.435 267.452 156.219 267.348 156.043C267.252 155.859 267.108 155.719 266.916 155.623C266.732 155.527 266.508 155.479 266.244 155.479C266.012 155.479 265.784 155.547 265.56 155.683C265.336 155.819 265.132 156.011 264.948 156.259C264.764 156.507 264.62 156.795 264.516 157.123L263.52 156.499C263.656 156.035 263.86 155.639 264.132 155.311C264.412 154.975 264.744 154.719 265.128 154.543C265.52 154.367 265.944 154.279 266.4 154.279C266.872 154.279 267.292 154.379 267.66 154.579C268.028 154.771 268.316 155.043 268.524 155.395C268.732 155.739 268.836 156.139 268.836 156.595C268.836 156.779 268.816 156.967 268.776 157.159C268.736 157.351 268.672 157.551 268.584 157.759C268.496 157.959 268.384 158.171 268.248 158.395C268.112 158.611 267.948 158.839 267.756 159.079C267.572 159.319 267.36 159.571 267.12 159.835L265.212 161.911L264.972 161.551H269.1V162.799H264.024Z" fill="white" fill-opacity="0.33"/>
<path d="M295.338 162.799L294.942 161.815L297.51 158.923C297.646 158.779 297.786 158.615 297.93 158.431C298.082 158.239 298.226 158.043 298.362 157.843C298.498 157.643 298.606 157.447 298.686 157.255C298.774 157.055 298.818 156.867 298.818 156.691C298.818 156.435 298.766 156.219 298.662 156.043C298.566 155.859 298.422 155.719 298.23 155.623C298.046 155.527 297.822 155.479 297.558 155.479C297.326 155.479 297.098 155.547 296.874 155.683C296.65 155.819 296.446 156.011 296.262 156.259C296.078 156.507 295.934 156.795 295.83 157.123L294.834 156.499C294.97 156.035 295.174 155.639 295.446 155.311C295.726 154.975 296.058 154.719 296.442 154.543C296.834 154.367 297.258 154.279 297.714 154.279C298.186 154.279 298.606 154.379 298.974 154.579C299.342 154.771 299.63 155.043 299.838 155.395C300.046 155.739 300.15 156.139 300.15 156.595C300.15 156.779 300.13 156.967 300.09 157.159C300.05 157.351 299.986 157.551 299.898 157.759C299.81 157.959 299.698 158.171 299.562 158.395C299.426 158.611 299.262 158.839 299.07 159.079C298.886 159.319 298.674 159.571 298.434 159.835L296.526 161.911L296.286 161.551H300.414V162.799H295.338ZM304.786 162.799V156.031L305.086 156.103L302.326 159.475L302.278 159.331H307.498V160.519H301.474L300.922 159.439L305.038 154.399H306.034V162.799H304.786Z" fill="white" fill-opacity="0.33"/>
<path d="M333.227 162.799L332.831 161.815L335.399 158.923C335.535 158.779 335.675 158.615 335.819 158.431C335.971 158.239 336.115 158.043 336.251 157.843C336.387 157.643 336.495 157.447 336.575 157.255C336.663 157.055 336.707 156.867 336.707 156.691C336.707 156.435 336.655 156.219 336.551 156.043C336.455 155.859 336.311 155.719 336.119 155.623C335.935 155.527 335.711 155.479 335.447 155.479C335.215 155.479 334.987 155.547 334.763 155.683C334.539 155.819 334.335 156.011 334.151 156.259C333.967 156.507 333.823 156.795 333.719 157.123L332.723 156.499C332.859 156.035 333.063 155.639 333.335 155.311C333.615 154.975 333.947 154.719 334.331 154.543C334.723 154.367 335.147 154.279 335.603 154.279C336.075 154.279 336.495 154.379 336.863 154.579C337.231 154.771 337.519 155.043 337.727 155.395C337.935 155.739 338.039 156.139 338.039 156.595C338.039 156.779 338.019 156.967 337.979 157.159C337.939 157.351 337.875 157.551 337.787 157.759C337.699 157.959 337.587 158.171 337.451 158.395C337.315 158.611 337.151 158.839 336.959 159.079C336.775 159.319 336.563 159.571 336.323 159.835L334.415 161.911L334.175 161.551H338.303V162.799H333.227ZM342.154 162.835C341.634 162.835 341.158 162.727 340.726 162.511C340.302 162.287 339.962 161.991 339.706 161.623C339.45 161.255 339.322 160.847 339.322 160.399C339.322 160.151 339.354 159.919 339.418 159.703C339.49 159.479 339.594 159.275 339.73 159.091C339.874 158.907 340.046 158.739 340.246 158.587C340.446 158.435 340.678 158.299 340.942 158.179L340.87 158.431C340.662 158.351 340.474 158.255 340.306 158.143C340.146 158.023 340.006 157.887 339.886 157.735C339.766 157.583 339.674 157.419 339.61 157.243C339.554 157.067 339.526 156.883 339.526 156.691C339.526 156.267 339.642 155.883 339.874 155.539C340.114 155.195 340.43 154.919 340.822 154.711C341.222 154.503 341.666 154.399 342.154 154.399C342.642 154.399 343.082 154.503 343.474 154.711C343.874 154.919 344.19 155.195 344.422 155.539C344.662 155.883 344.782 156.267 344.782 156.691C344.782 156.883 344.75 157.067 344.686 157.243C344.63 157.419 344.546 157.579 344.434 157.723C344.322 157.867 344.178 157.999 344.002 158.119C343.834 158.239 343.642 158.343 343.426 158.431L343.39 158.227C343.63 158.323 343.846 158.447 344.038 158.599C344.238 158.751 344.41 158.923 344.554 159.115C344.698 159.307 344.806 159.511 344.878 159.727C344.958 159.943 344.998 160.167 344.998 160.399C344.998 160.855 344.87 161.267 344.614 161.635C344.358 162.003 344.014 162.295 343.582 162.511C343.158 162.727 342.682 162.835 342.154 162.835ZM342.154 161.635C342.45 161.635 342.714 161.579 342.946 161.467C343.186 161.355 343.374 161.203 343.51 161.011C343.646 160.819 343.714 160.599 343.714 160.351C343.714 160.087 343.646 159.855 343.51 159.655C343.374 159.447 343.186 159.283 342.946 159.163C342.714 159.043 342.45 158.983 342.154 158.983C341.858 158.983 341.594 159.043 341.362 159.163C341.13 159.283 340.946 159.447 340.81 159.655C340.674 159.855 340.606 160.087 340.606 160.351C340.606 160.591 340.674 160.807 340.81 160.999C340.946 161.191 341.13 161.347 341.362 161.467C341.594 161.579 341.858 161.635 342.154 161.635ZM342.154 157.831C342.41 157.831 342.638 157.783 342.838 157.687C343.046 157.591 343.206 157.463 343.318 157.303C343.438 157.135 343.498 156.943 343.498 156.727C343.498 156.511 343.438 156.319 343.318 156.151C343.206 155.983 343.046 155.851 342.838 155.755C342.638 155.651 342.41 155.599 342.154 155.599C341.898 155.599 341.666 155.651 341.458 155.755C341.258 155.851 341.098 155.983 340.978 156.151C340.866 156.319 340.81 156.511 340.81 156.727C340.81 156.943 340.866 157.135 340.978 157.303C341.098 157.463 341.258 157.591 341.458 157.687C341.666 157.783 341.898 157.831 342.154 157.831Z" fill="white" fill-opacity="0.33"/>
<path d="M373.012 162.919C372.42 162.919 371.904 162.783 371.464 162.511C371.032 162.239 370.624 161.783 370.24 161.143L371.248 160.507C371.448 160.803 371.644 161.047 371.836 161.239C372.036 161.423 372.24 161.559 372.448 161.647C372.656 161.735 372.876 161.779 373.108 161.779C373.388 161.779 373.648 161.711 373.888 161.575C374.128 161.431 374.32 161.235 374.464 160.987C374.608 160.739 374.68 160.459 374.68 160.147C374.68 159.835 374.624 159.571 374.512 159.355C374.4 159.131 374.236 158.963 374.02 158.851C373.804 158.731 373.548 158.671 373.252 158.671C373.116 158.671 372.972 158.687 372.82 158.719C372.676 158.743 372.52 158.783 372.352 158.839C372.184 158.887 372 158.951 371.8 159.031L371.44 158.083L374.032 155.227L374.284 155.599H370.708V154.399H375.52L375.76 154.879L373.012 157.927L372.712 157.615C372.776 157.583 372.88 157.555 373.024 157.531C373.176 157.499 373.3 157.483 373.396 157.483C373.748 157.483 374.076 157.551 374.38 157.687C374.692 157.815 374.96 157.999 375.184 158.239C375.416 158.471 375.596 158.747 375.724 159.067C375.86 159.379 375.928 159.715 375.928 160.075C375.928 160.619 375.796 161.107 375.532 161.539C375.276 161.963 374.928 162.299 374.488 162.547C374.048 162.795 373.556 162.919 373.012 162.919ZM379.988 162.919C379.348 162.919 378.796 162.743 378.332 162.391C377.876 162.039 377.524 161.543 377.276 160.903C377.028 160.255 376.904 159.487 376.904 158.599C376.904 157.711 377.028 156.947 377.276 156.307C377.524 155.659 377.876 155.159 378.332 154.807C378.796 154.455 379.348 154.279 379.988 154.279C380.628 154.279 381.18 154.455 381.644 154.807C382.108 155.159 382.464 155.659 382.712 156.307C382.96 156.947 383.084 157.711 383.084 158.599C383.084 159.487 382.96 160.255 382.712 160.903C382.464 161.543 382.108 162.039 381.644 162.391C381.18 162.743 380.628 162.919 379.988 162.919ZM379.988 161.743C380.572 161.743 381.024 161.471 381.344 160.927C381.664 160.375 381.824 159.599 381.824 158.599C381.824 157.599 381.664 156.827 381.344 156.283C381.024 155.731 380.572 155.455 379.988 155.455C379.404 155.455 378.952 155.731 378.632 156.283C378.312 156.827 378.152 157.599 378.152 158.599C378.152 159.599 378.312 160.375 378.632 160.927C378.952 161.471 379.404 161.743 379.988 161.743Z" fill="white" fill-opacity="0.33"/>
</g>
<path d="M33.176 178.799V170.399H34.448L37.508 175.379L36.896 175.367L39.992 170.399H41.192V178.799H39.896V175.355C39.896 174.635 39.912 173.987 39.944 173.411C39.984 172.835 40.048 172.263 40.136 171.695L40.304 172.139L37.556 176.387H36.764L34.1 172.187L34.232 171.695C34.32 172.231 34.38 172.783 34.412 173.351C34.452 173.911 34.472 174.579 34.472 175.355V178.799H33.176ZM45.6591 178.919C45.1391 178.919 44.6631 178.775 44.2311 178.487C43.8071 178.199 43.4671 177.807 43.2111 177.311C42.9551 176.815 42.8271 176.255 42.8271 175.631C42.8271 174.999 42.9551 174.439 43.2111 173.951C43.4751 173.455 43.8271 173.067 44.2671 172.787C44.7151 172.507 45.2151 172.367 45.7671 172.367C46.0951 172.367 46.3951 172.415 46.6671 172.511C46.9391 172.607 47.1751 172.743 47.3751 172.919C47.5831 173.087 47.7511 173.283 47.8791 173.507C48.0151 173.731 48.0991 173.971 48.1311 174.227L47.8551 174.131V172.499H49.1031V178.799H47.8551V177.299L48.1431 177.215C48.0951 177.431 47.9951 177.643 47.8431 177.851C47.6991 178.051 47.5111 178.231 47.2791 178.391C47.0551 178.551 46.8031 178.679 46.5231 178.775C46.2511 178.871 45.9631 178.919 45.6591 178.919ZM45.9831 177.779C46.3591 177.779 46.6911 177.687 46.9791 177.503C47.2671 177.319 47.4911 177.067 47.6511 176.747C47.8191 176.419 47.9031 176.047 47.9031 175.631C47.9031 175.223 47.8191 174.859 47.6511 174.539C47.4911 174.219 47.2671 173.967 46.9791 173.783C46.6911 173.599 46.3591 173.507 45.9831 173.507C45.6151 173.507 45.2871 173.599 44.9991 173.783C44.7191 173.967 44.4951 174.219 44.3271 174.539C44.1671 174.859 44.0871 175.223 44.0871 175.631C44.0871 176.047 44.1671 176.419 44.3271 176.747C44.4951 177.067 44.7191 177.319 44.9991 177.503C45.2871 177.687 45.6151 177.779 45.9831 177.779ZM50.8288 178.799V172.499H52.0768V174.479L51.9568 173.999C52.0448 173.695 52.1928 173.419 52.4008 173.171C52.6168 172.923 52.8608 172.727 53.1328 172.583C53.4128 172.439 53.7008 172.367 53.9968 172.367C54.1328 172.367 54.2608 172.379 54.3808 172.403C54.5088 172.427 54.6088 172.455 54.6808 172.487L54.3568 173.831C54.2608 173.791 54.1528 173.759 54.0328 173.735C53.9208 173.703 53.8088 173.687 53.6968 173.687C53.4808 173.687 53.2728 173.731 53.0728 173.819C52.8808 173.899 52.7088 174.015 52.5568 174.167C52.4128 174.311 52.2968 174.483 52.2088 174.683C52.1208 174.875 52.0768 175.087 52.0768 175.319V178.799H50.8288ZM58.0752 178.919C57.4912 178.919 56.9672 178.775 56.5032 178.487C56.0472 178.199 55.6832 177.807 55.4112 177.311C55.1472 176.815 55.0152 176.259 55.0152 175.643C55.0152 175.027 55.1472 174.471 55.4112 173.975C55.6832 173.479 56.0472 173.087 56.5032 172.799C56.9672 172.511 57.4912 172.367 58.0752 172.367C58.6352 172.367 59.1432 172.483 59.5992 172.715C60.0632 172.939 60.4152 173.247 60.6552 173.639L59.9712 174.479C59.8432 174.295 59.6792 174.127 59.4792 173.975C59.2792 173.823 59.0672 173.703 58.8432 173.615C58.6192 173.527 58.4032 173.483 58.1952 173.483C57.8112 173.483 57.4672 173.579 57.1632 173.771C56.8672 173.955 56.6312 174.211 56.4552 174.539C56.2792 174.867 56.1912 175.235 56.1912 175.643C56.1912 176.051 56.2832 176.419 56.4672 176.747C56.6512 177.067 56.8952 177.323 57.1992 177.515C57.5032 177.707 57.8392 177.803 58.2072 177.803C58.4232 177.803 58.6312 177.767 58.8312 177.695C59.0392 177.623 59.2392 177.515 59.4312 177.371C59.6232 177.227 59.8032 177.051 59.9712 176.843L60.6552 177.683C60.3992 178.043 60.0312 178.339 59.5512 178.571C59.0792 178.803 58.5872 178.919 58.0752 178.919ZM61.821 178.799V169.919H63.057V173.795L62.841 173.939C62.921 173.659 63.077 173.403 63.309 173.171C63.541 172.931 63.817 172.739 64.137 172.595C64.457 172.443 64.785 172.367 65.121 172.367C65.601 172.367 66.001 172.463 66.321 172.655C66.641 172.839 66.881 173.123 67.041 173.507C67.201 173.891 67.281 174.375 67.281 174.959V178.799H66.045V175.043C66.045 174.683 65.997 174.387 65.901 174.155C65.805 173.915 65.657 173.743 65.457 173.639C65.257 173.527 65.009 173.479 64.713 173.495C64.473 173.495 64.253 173.535 64.053 173.615C63.853 173.687 63.677 173.791 63.525 173.927C63.381 174.063 63.265 174.223 63.177 174.407C63.097 174.583 63.057 174.775 63.057 174.983V178.799H62.445C62.341 178.799 62.237 178.799 62.133 178.799C62.029 178.799 61.925 178.799 61.821 178.799Z" fill="white" fill-opacity="0.33"/>
<defs>
<linearGradient id="paint0_linear_428_3752" x1="224.538" y1="53.3143" x2="224.538" y2="147.799" gradientUnits="userSpaceOnUse">
<stop stop-color="#1FAEFF" stop-opacity="0.16"/>
<stop offset="1" stop-color="#1FAEFF" stop-opacity="0.64"/>
</linearGradient>
<clipPath id="clip0_428_3752">
<rect x="26" width="358" height="147.799" rx="16" fill="white"/>
</clipPath>
<clipPath id="clip1_428_3752">
<rect width="352" height="12" fill="white" transform="translate(32 151.799)"/>
</clipPath>
</defs>
</svg>
