<svg width="242" height="136" version="1.1" viewBox="0 0 256 144" xmlns="http://www.w3.org/2000/svg">
    <path d="m256 0v136c0 4.432-3.568 8-8 8h-240c-4.432 0-8-3.568-8-8v-136z" fill="var(--theme-background)" />
    <path d="m116 8h64c2.216 0 4 1.784 4 4s-1.784 4-4 4h-64c-2.216 0-4-1.784-4-4s1.784-4 4-4z"
        fill="var(--theme-hover)" />
    <path d="m220 8h24c2.216 0 4 1.784 4 4s-1.784 4-4 4h-24c-2.216 0-4-1.784-4-4s1.784-4 4-4z"
        fill="var(--palette-accent)" />
    <path
        d="m96 30c-5.5054 0-10 4.4946-10 10v24c0 5.5054 4.4946 10 10 10h64c5.5054 0 10-4.4946 10-10v-24c0-5.5054-4.4946-10-10-10h-64zm0 2h64c4.432 0 8 3.568 8 8v24c0 4.432-3.568 8-8 8h-64c-4.432 0-8-3.568-8-8v-24c0-4.432 3.568-8 8-8z"
        fill="var(--theme-border)" />
    <path d="m96 32h64c4.432 0 8 3.568 8 8v24c0 4.432-3.568 8-8 8h-64c-4.432 0-8-3.568-8-8v-24c0-4.432 3.568-8 8-8z"
        fill="var(--theme-card)" />
    <path d="m0 112h256v32h-256z" fill="var(--theme-shade)" />
    <path
        d="m12 8c-2.216 0-4 1.784-4 4s1.784 4 4 4h40c2.216 0 4-1.784 4-4s-1.784-4-4-4h-40zm56 0c-2.216 0-4 1.784-4 4s1.784 4 4 4h8c2.216 0 4-1.784 4-4s-1.784-4-4-4h-8zm24 0c-2.216 0-4 1.784-4 4s1.784 4 4 4h8c2.216 0 4-1.784 4-4s-1.784-4-4-4h-8zm104 0c-2.216 0-4 1.784-4 4s1.784 4 4 4h8c2.216 0 4-1.784 4-4s-1.784-4-4-4h-8zm-124 112c-4.432 0-8 3.568-8 8s3.568 8 8 8h16c4.432 0 8-3.568 8-8s-3.568-8-8-8h-16zm48 0c-4.432 0-8 3.568-8 8s3.568 8 8 8h16c4.432 0 8-3.568 8-8s-3.568-8-8-8h-16zm48 0c-4.432 0-8 3.568-8 8s3.568 8 8 8h16c4.432 0 8-3.568 8-8s-3.568-8-8-8h-16z"
        fill="var(--theme-foreground)" />
</svg>
